<svg viewBox="0 0 200 200" xmlns="http://www.w3.org/2000/svg"><defs><linearGradient id="g" x1="0" y1="0" x2="0" y2="1"><stop offset="0" stop-color="#22d3ee"/><stop offset="1" stop-color="#0891b2"/></linearGradient></defs><ellipse cx="100" cy="95" rx="45" ry="50" fill="url(#g)"/><polygon points="48,75 25,50 60,80" fill="url(#g)"/><polygon points="152,75 175,50 140,80" fill="url(#g)"/><polygon points="35,65 15,40 45,70" fill="#0891b2"/><polygon points="165,65 185,40 155,70" fill="#0891b2"/><circle cx="88" cy="85" r="8" fill="#f1f5f9"/><circle cx="112" cy="85" r="8" fill="#f1f5f9"/><circle cx="88" cy="86" r="4" fill="#020617"/><circle cx="112" cy="86" r="4" fill="#020617"/><circle cx="90" cy="84" r="1.5" fill="#f1f5f9"/><circle cx="114" cy="84" r="1.5" fill="#f1f5f9"/><polygon points="100,100 93,115 107,115" fill="#fbbf24"/><path d="M82 76Q100 68 118 76" stroke="#0891b2" stroke-width="3" fill="none"/></svg>