<svg viewBox="0 0 200 200" xmlns="http://www.w3.org/2000/svg"><defs><linearGradient id="g" x1="0" y1="0" x2="0" y2="1"><stop offset="0" stop-color="#22d3ee"/><stop offset="1" stop-color="#0891b2"/></linearGradient></defs><path d="M60 85Q60 140 100 145Q140 140 140 85Q130 70 100 68Q70 70 60 85Z" fill="url(#g)"/><path d="M68 80Q60 55 55 35" stroke="#0891b2" stroke-width="4" fill="none" stroke-linecap="round"/><path d="M132 80Q140 55 145 35" stroke="#0891b2" stroke-width="4" fill="none" stroke-linecap="round"/><rect cx="85" cy="100" x="79" y="96" width="12" height="10" rx="5" fill="#f1f5f9"/><rect cx="115" cy="100" x="109" y="96" width="12" height="10" rx="5" fill="#f1f5f9"/><circle cx="85" cy="101" r="3" fill="#020617"/><circle cx="115" cy="101" r="3" fill="#020617"/><ellipse cx="100" cy="122" rx="6" ry="4" fill="#0891b2"/><path d="M92 130Q100 136 108 130" stroke="#164e63" stroke-width="2" fill="none" stroke-linecap="round"/><path d="M95 145Q100 160 105 145" fill="url(#g)"/></svg>